<svg width="100" height="100" xmlns="http://www.w3.org/2000/svg"><g fill="none" fill-rule="evenodd"><path d="M0 0h100v100H0z"/><g fill="#FFF"><path d="M4.705 75.052l20.926-28.258c.935-1.261 2.659-1.284 3.565-.049l20.302 27.697c1.202 1.637.108 4.134-1.828 4.163l-41.23.562c-1.936.025-2.976-2.44-1.735-4.115"/><path d="M29.735 74.982L61.1 34.309c.989-1.28 2.812-1.304 3.771-.05l30.43 39.862c1.272 1.668.115 4.206-1.936 4.235l-61.796.81c-2.046.024-3.145-2.481-1.835-4.184m61.933-45.814a8.332 8.332 0 01-8.334 8.332 8.334 8.334 0 118.333-8.332"/></g></g></svg>
