<svg xmlns="http://www.w3.org/2000/svg" width="24" height="24" xmlns:v="https://vecta.io/nano"><defs><linearGradient x1="33.696%" y1=".519%" x2="66.646%" y2="100.519%" id="A"><stop stop-color="#14a1f9" offset="0%"/><stop stop-color="#0466e1" offset="100%"/></linearGradient></defs><g fill-rule="evenodd"><path d="M12 0C5.373 0 0 5.373 0 12s5.373 12 12 12c6.597 0 11.95-5.323 12-11.908v-.184C23.95 5.323 18.597 0 12 0z" fill="url(#A)"/><path d="M14.399 11.989H12.73V18h-2.528v-6.011H9V9.876h1.202V8.508c0-.977.472-2.508 2.55-2.508l1.873.008v2.05h-1.359c-.222 0-.536.11-.536.576v1.244h1.889l-.22 2.11z" fill="#fff"/></g></svg>