<svg xmlns="http://www.w3.org/2000/svg" xmlns:xlink="http://www.w3.org/1999/xlink" width="36" height="36" xmlns:v="https://vecta.io/nano"><defs><path d="M.587.823a.705.705 0 1 0 1.41 0 .706.706 0 0 0-1.41 0z" id="A"/></defs><g fill="none" fill-rule="evenodd"><path d="M18 0c9.94 0 18 8.06 18 18s-8.06 18-18 18S0 27.94 0 18 8.06 0 18 0" fill="#fff"/><path d="M18 .5c4.832 0 9.207 1.959 12.374 5.126A17.445 17.445 0 0 1 35.5 18c0 4.832-1.959 9.207-5.126 12.374A17.445 17.445 0 0 1 18 35.5a17.445 17.445 0 0 1-12.374-5.126A17.445 17.445 0 0 1 .5 18c0-4.832 1.959-9.207 5.126-12.374A17.445 17.445 0 0 1 18 .5z" stroke="#e2e8f1"/><path d="M22.874 8.797c.78 0 1.41.62 1.478 1.402l.006.14v2.821h-.97v-2.822c0-.29-.19-.522-.432-.565l-.082-.007h-9.993c-.25 0-.467.202-.508.478l-.007.094v2.822h-.968v-2.822c0-.799.586-1.463 1.347-1.535l.136-.006h9.993z" fill="#515c69" fill-rule="nonzero"/><g transform="translate(21.875 14.806)"><mask id="B" fill="#fff"><use xlink:href="#A"/></mask><path fill="#515c69" mask="url(#B)" d="M-2.94 5.056h8.465V-3.41H-2.94z"/></g><g fill="#515c69" fill-rule="nonzero"><path d="M20.699 17.966h-5.643a1.54 1.54 0 0 0-1.542 1.542v6.35c0 .851.69 1.542 1.542 1.542h5.643a1.54 1.54 0 0 0 1.542-1.543v-6.349a1.54 1.54 0 0 0-1.542-1.542zm-5.643.969h5.643a.57.57 0 0 1 .573.573v6.35a.573.573 0 0 1-.573.573h-5.643a.574.574 0 0 1-.574-.574v-6.349c0-.316.257-.573.574-.573z"/><path d="M25.088 13.029c.74 0 1.318.63 1.38 1.404l.006.138v5.643c0 .79-.537 1.463-1.257 1.536l-.129.006h-3.293v-.968h3.293c.188 0 .371-.191.41-.467l.007-.107v-5.643c0-.296-.162-.519-.347-.565l-.07-.008H10.666c-.187 0-.37.19-.409.466l-.007.107v5.643c0 .295.162.519.347.565l.07.009h3.324v.968h-3.325c-.74 0-1.317-.63-1.38-1.404l-.005-.138v-5.643c0-.79.537-1.463 1.257-1.536l.128-.006h14.422zm-5.643 8.111c.267 0 .484.224.484.5 0 .246-.171.45-.397.492l-.087.009H16.31a.492.492 0 0 1-.484-.5c0-.246.17-.45.397-.492l.087-.008h3.135zm0 2.116c.267 0 .484.224.484.5 0 .246-.171.45-.397.492l-.087.008H16.31a.492.492 0 0 1-.484-.5c0-.245.17-.45.397-.492l.087-.008h3.135z"/></g></g></svg>