<svg width="36" height="36" viewBox="0 0 36 36" xmlns="http://www.w3.org/2000/svg">
    <g fill="none" fill-rule="evenodd">
        <path d="M18 0c9.94 0 18 8.06 18 18s-8.06 18-18 18S0 27.94 0 18 8.06 0 18 0" fill="#FFF"/>
        <path d="M18 .5c4.832 0 9.207 1.959 12.374 5.126A17.445 17.445 0 0 1 35.5 18c0 4.832-1.959 9.207-5.126 12.374A17.445 17.445 0 0 1 18 35.5a17.445 17.445 0 0 1-12.374-5.126A17.445 17.445 0 0 1 .5 18c0-4.832 1.959-9.207 5.126-12.374A17.445 17.445 0 0 1 18 .5z" stroke="#E2E8F1"/>
        <g transform="translate(8.797 8.797)" fill="#E03F19">
            <path d="M9.203 0a9.203 9.203 0 1 1-1.979 18.193.62.62 0 0 1 .266-1.211 7.963 7.963 0 1 0-4.98-3.463l.182.27.19.268L2.1 16.12l2.156-.392a.62.62 0 0 1 .698.41l.023.088a.62.62 0 0 1-.41.698l-.089.023-4.313.788 1.325-3.507-.175-.279a9.156 9.156 0 0 1-1.31-4.406L0 9.203A9.203 9.203 0 0 1 9.203 0z" stroke="#E03F19" stroke-width=".15" fill-rule="nonzero"/>
            <ellipse cx="5.443" cy="9.041" rx="1.073" ry="1.083"/>
            <ellipse cx="9.019" cy="9.041" rx="1.073" ry="1.083"/>
            <ellipse cx="12.596" cy="9.041" rx="1.073" ry="1.083"/>
        </g>
    </g>
</svg>
