<svg xmlns="http://www.w3.org/2000/svg" xmlns:xlink="http://www.w3.org/1999/xlink" width="20" height="20"><defs><path id="a" d="M0 0h7.856v13.333H0z"/><path id="c" d="M0 0h7.856v13.333H0z"/></defs><g fill="none" fill-rule="evenodd"><g transform="translate(9.227 3.333)"><mask id="b" fill="#fff"><use xlink:href="#a"/></mask><path fill="#E03F19" d="M.346 11.318a1.18 1.18 0 0 0 .836 2.015c.302 0 .605-.115.835-.345L7.51 7.5a1.18 1.18 0 0 0 0-1.67L2.017.347a1.183 1.183 0 0 0-1.67 0 1.18 1.18 0 0 0 0 1.67l4.656 4.65-4.657 4.652z" mask="url(#b)"/></g><g transform="translate(2.917 3.333)"><mask id="d" fill="#fff"><use xlink:href="#c"/></mask><path fill="#E03F19" d="M.346 12.988c.23.23.533.345.836.345.302 0 .605-.115.835-.345L7.51 7.5a1.18 1.18 0 0 0 0-1.669L2.017.346a1.183 1.183 0 0 0-1.67 0 1.18 1.18 0 0 0 0 1.67l4.656 4.65-4.657 4.652a1.18 1.18 0 0 0 0 1.67" mask="url(#d)"/></g></g></svg>