<svg xmlns="http://www.w3.org/2000/svg" width="24" height="24"><g fill="none"><path fill="#54B5C6" d="M17.549 3.215 15.4 2.068c-1.27-.681-2.3-1.022-3.325-1.028h-.037c-1.024.006-2.049.352-3.325 1.028L6.567 3.215c-3.38 1.806-5.51 2.43-5.51 6.474v4.702c0 4.044 2.13 4.668 5.51 6.474l2.147 1.147c1.27.682 2.3 1.022 3.325 1.028h.037c1.025-.006 2.05-.352 3.325-1.028l2.148-1.147c3.38-1.806 5.509-2.43 5.509-6.474V9.69c0-4.043-2.123-4.668-5.51-6.474z"/><path fill="#FFF" d="m12.377-.1-.266-.01h-.072c-1.208.007-2.384.378-3.863 1.162l-2.86 1.52-1.475.778-.178.097C.997 4.942-.092 6.536-.092 9.69v4.702c0 3.055 1.022 4.646 3.51 6.101l.325.185.623.333 1.66.87 2.146 1.147c1.342.72 2.454 1.092 3.567 1.154l.337.01c1.208-.008 2.385-.38 3.864-1.162l2.637-1.404 1.667-.878.209-.114c2.666-1.495 3.755-3.089 3.755-6.242V9.69c0-3.056-1.021-4.647-3.508-6.101l-.333-.19-1.206-.638-1.071-.56-2.147-1.146C14.602.334 13.49-.04 12.377-.101zm-.331 2.29.232.007c.644.036 1.374.266 2.317.747l2.763 1.47 1.646.862.327.178.404.235c1.662 1.008 2.173 1.906 2.173 4v4.702c0 2.173-.552 3.058-2.373 4.117l-.293.166-1.242.657-.993.52-2.148 1.147c-1.085.575-1.884.845-2.61.886l-.21.006-.201-.007c-.703-.04-1.508-.309-2.58-.884l-2.803-1.49-1.581-.835-.086-.047c-1.987-1.114-2.58-1.983-2.58-4.236V9.69c0-2.253.593-3.122 2.58-4.235l.63-.338 1.69-.887 2.148-1.147c1.176-.622 2.015-.888 2.79-.892z"/><path fill="#FFF" d="M10.857 16.625 5.84 8.035l.203-.086c1.158-.49 2.573-.095 3.149.889l2.866 4.907 2.866-4.907c.576-.989 1.99-1.384 3.148-.89l.203.087-5.022 8.595c-.192.417-.678.671-1.195.671-.523-.005-1.009-.259-1.201-.676"/></g></svg>