<svg xmlns="http://www.w3.org/2000/svg" xml:space="preserve" style="enable-background:new 0 0 95.8 39" viewBox="0 0 95.8 39"><path d="M71 31h15.5l-5.9 1.8v3.5c0 .6-.4.9-1 .9-1 0-2.7-.1-4.1-.2l.6 1.9c1.1.1 2.3.1 3.6.1 2.1 0 3.2-.9 3.2-2.6v-2.5l8.6-3v-1.6H71V31zm18.6-8.4H73.7c-.3 0-.5.2-.5.5v4.3c0 .3.2.5.5.5l15.9.1c.3 0 .5-.2.5-.5v-4.4c0-.3-.2-.5-.5-.5zM88 26.3H75.4v-2.1H88v2.1zm-5.3-9.7h-2.1v2.9H70.3v1.7h22.8v-1.7H82.7zM46.9 29.8l-1.8.4c.3 1.2.7 2.8 1 4.6l1.8-.4c-.4-1.7-.7-3.2-1-4.6z"/><path d="m53.3 23.8 1.5-1.4c-1.3-1.6-2.6-3.1-4-4.6l.2-.7-1.8-.6c-1.2 2.2-2.7 4.2-4.7 5.9l.9 1.8c.4-.3.8-.7 1.2-1.1v1.2h1.9v2.2h-3.4v1.7h3.4v7.4l-3.9.6.4 1.8 9-1.4.2-1.8-3.8.6v-7.2h3.5v-1.7h-3.5v-2.2h1.9v-1.7h-5c1-1 1.8-2.1 2.4-3.4 1.3 1.6 2.5 3.1 3.6 4.6z"/><path d="m51 34.1 1.8.5c.4-1.4.9-2.8 1.3-4.4l-1.8-.4c-.3 1.4-.8 2.9-1.3 4.3zm6.2 2.2v-4.5h8.5c.3 0 .5-.2.5-.5v-6.9c0-.3-.2-.5-.5-.5h-8.5v-4.2h10.1v-1.8H55.7c-.3 0-.5.2-.5.5v19.2c0 .3.2.5.5.5h11.8v-1.8H57.2zm0-10.8h7V30h-7v-4.5zM51.5.4v1.3C50.7.5 49.3-.2 47.9 0c-3.5 0-6.3 2.8-6.2 6.3v.3c0 3.6 2.3 6.6 6.2 6.6 1.5.2 2.9-.5 3.6-1.7v1.3h3.7V.4h-3.7zm.1 6.2c.1 1.7-1.2 3.2-2.9 3.3-1.7.1-3.2-1.2-3.3-2.9v-.4c-.1-1.7 1.2-3.2 2.9-3.3 1.7-.1 3.2 1.2 3.3 2.9v.4zM63.8 0c-1.4-.1-2.7.6-3.4 1.7V.4h-3.5v12.4h3.7V6.1c0-.8 0-2.6 2.1-2.6 2 0 2 1.7 2 2.6v6.8h3.7V5.1c0-2.4-.8-3.4-1.4-4C66.1.4 64.9 0 63.8 0zm10.8 13.2c1.3.1 2.6-.5 3.2-1.7v1.3h3.5V.4h-3.7v6.8c0 2-1 2.5-2.1 2.5-2 0-2-1.6-2-2.5V.4h-3.7v7.4c-.2 1.4.3 2.8 1.2 3.8.9 1.1 2.2 1.7 3.6 1.6zm21.2-6.4C95.9 3.1 93 .1 89.4 0h-.2c-3.7.2-6.5 3.3-6.3 6.9.2 3.5 2.9 6.2 6.4 6.3 1.3 0 2.5-.4 3.5-1.1 1.1-.8 2-1.9 2.5-3.2h-3.8c-.5.7-1.4 1.2-2.2 1.2-1.4.1-2.7-.9-2.9-2.3h9.3c.1-.3.1-.7.1-1zm-9.4-1.6c.4-1.6 2.1-2.5 3.6-2 1 .3 1.7 1 2 2h-5.6z"/><path d="M24.4 38.4h-3.6c0-9.5 7.7-17.2 17.2-17.2v3.6c-7.5 0-13.6 6.1-13.6 13.6z" style="fill:#ffb43e"/><path d="M16.6 38.4H13c0-13.8 11.2-25 25-25.1V17c-11.8 0-21.4 9.6-21.4 21.4z" style="fill:#e03f19"/><path d="M3.4 38.4H0c0-21 17-38 38-38v3.4C18.9 3.9 3.5 19.3 3.4 38.4z" style="fill:#54b5c6"/></svg>