<svg xmlns="http://www.w3.org/2000/svg" width="25" height="25" fill="none" fill-rule="evenodd" xmlns:v="https://vecta.io/nano"><path d="M23 11.5C23 17.299 18.299 22 12.5 22S2 17.299 2 11.5 6.701 1 12.5 1 23 5.701 23 11.5" fill="#e1e6f0"/><path d="M23.062 19.827c.651-.267 1.141-.887 1.73-1.953-1.582-.928-3.314-.376-4.44 1.603l2.71.35zm-4.967 2.464c1.116 1.065 2.772 1.789 4.861-.397-1.38-1.32-3.287-1.25-4.861.397zm5.592-6.377c.69-.479 1.209-1.37 1.313-2.937-1.906-.127-3.325 1.15-3.476 3.423l2.163-.486zm-.442-4.155c.467-.7.621-1.72.138-3.219-1.818.587-2.665 2.297-1.965 4.465l1.827-1.246zM1.924 19.827C1.278 19.56.79 18.94.206 17.874c1.57-.928 3.29-.376 4.408 1.603l-2.69.35zm4.93 2.464c-1.107 1.065-2.752 1.789-4.825-.397 1.371-1.32 3.264-1.25 4.826.397zm-5.551-6.377c-.685-.479-1.2-1.37-1.303-2.937 1.892-.127 3.3 1.15 3.45 3.423l-2.147-.486zm.439-4.155c-.463-.7-.616-1.72-.137-3.219 1.805.587 2.645 2.297 1.951 4.465L1.742 11.76z" stroke="#1c1e2f" stroke-width=".806" fill="#f3a891" stroke-linejoin="round"/><path fill="#fffffe" d="M6.048 19.514h12.904V2.982H6.048z"/><path stroke="#1c1e2f" stroke-width=".806" d="M6.048 19.514h12.904V2.982H6.048z"/><path fill="#e65123" d="M11.29 17.901v5.645l1.21-1.21 1.21 1.21v-5.645h-2.42"/><path stroke="#1c1e2f" stroke-width=".806" d="M13.71 17.901v5.645l-1.21-1.21-1.21 1.21v-5.645"/><path d="M14.516 16.692a2.016 2.016 0 1 1-4.032 0 2.016 2.016 0 0 1 4.032 0" fill="#e65123"/><g stroke="#1c1e2f" stroke-width=".806"><path d="M14.516 16.692a2.016 2.016 0 1 1-4.032 0 2.016 2.016 0 0 1 4.032 0z"/><path d="M9.274 8.627h6.452m-5.242 1.613h4.032" stroke-linecap="round"/></g></svg>