<svg width="25" height="25" viewBox="0 0 25 25" xmlns="http://www.w3.org/2000/svg">
    <g fill="none" fill-rule="evenodd">
        <path d="M5.134 23.38a7.73 7.73 0 0 0 1.168.486c2.799.844 5.357.845 7.674.003 3.475-1.264 5.678-3.685 6.35-6.628.426-1.87.035-3.834-.786-5.6-.82-1.764-2.055-3.353-3.36-4.872a8.794 8.794 0 0 1-.03 6.28c.216-1.387-.152-2.837-1.015-4.01-.624-.845-1.489-1.543-2.045-2.424-1.161-1.84-.78-4.153.09-6.115-2.12 1.137-4.09 2.55-5.512 4.348-1.42 1.798-2.26 4.01-2.011 6.193-.039-.335-1.333-1.652-1.284-4.031-1.407 1.108-2.483 3.895-3.125 5.447-.727 1.755-.998 3.696-.48 5.509.398 1.395 1.447 2.916 2.181 3.714.378.41.832.84 1.4 1.23" fill="#E65123"/>
        <path d="M6.004 23.94c-.656-1.77-1.094-3.654-.988-5.542.106-1.889.797-3.788 2.138-5.1-.056 1.162.552 2.334 1.528 2.945-.354-3.077 1.31-6.294 4.008-7.743a5.99 5.99 0 0 0 .391 4.392c.657 1.29 1.77 2.3 2.393 3.608 1.117 2.347.432 5.211-.893 7.445l-4.064.555-4.513-.56z" fill="#F3A891"/>
        <path d="M5.366 23.495c.288.137.6.262.936.37 2.799.845 5.357.846 7.674.004 3.475-1.264 5.678-3.685 6.35-6.628.15-.658.198-1.328.163-1.997m-.949-3.602c-.82-1.765-2.055-3.354-3.36-4.873a8.794 8.794 0 0 1-.03 6.28c.216-1.387-.152-2.837-1.015-4.01-.624-.845-1.489-1.543-2.045-2.424-1.161-1.84-.78-4.153.09-6.115-2.12 1.137-4.09 2.55-5.512 4.348-1.42 1.798-2.26 4.01-2.011 6.193-.018-.152-.295-.357-.588-.76-.35-.48-.723-2.215-.696-3.512C2.2 9.725 1.842 10.282 1.03 12.24c-.812 1.958-.78 3.913-.263 5.726.398 1.395 1.447 2.916 2.181 3.714" stroke="#1C1E2F" stroke-width=".789" stroke-linecap="round" stroke-linejoin="round"/>
        <path d="M18.5 3.5c-5.775 0-6.5 2.339-6.5 5.224 0 2.09.382 3.892 2.786 4.728v2.572c0 .437.527.642.811.316l2.093-2.41c.26.011.527.019.81.019 4.094 0 5.65-1.176 6.21-2.889.229-.703.29-1.496.29-2.336 0-2.668-.62-4.869-5.28-5.185-.38-.026-.785-.039-1.22-.039z" fill="#E1E6F0"/>
        <g stroke="#FFF" stroke-width="1.043">
            <path d="M11.105 19.652c0 .576-.47 1.043-1.052 1.043h-.527a1.048 1.048 0 0 1-1.052-1.043v-2.087c0-.576.47-1.043 1.052-1.043h.527c.581 0 1.052.467 1.052 1.043v2.087zM6.895 16v5.217M4.263 16v5.217M6.895 18.609H4.263M13.737 16.522v4.695M15.316 16.522h-3.158M16.368 16v3.652M16.368 20.174v1.043"/>
        </g>
        <path d="M17.5 2.5c-5.775 0-6.5 2.339-6.5 5.224 0 2.09.382 3.892 2.786 4.728v2.572c0 .437.527.642.811.316l2.093-2.41c.26.011.527.019.81.019 4.094 0 5.65-1.176 6.21-2.889.229-.703.29-1.496.29-2.336 0-2.668-.62-4.869-5.28-5.185-.38-.026-.785-.039-1.22-.039z" stroke="#1C1E2F" stroke-width=".81" fill="#FFF"/>
        <g fill="#E03F19" fill-rule="nonzero">
            <path d="M20.7 6.19c-.01-.34-.19-.52-.53-.52h-.75l.13-1.03a.538.538 0 0 0-.11-.42c-.1-.1-.21-.16-.34-.16-.36 0-.56.16-.6.46l-.15 1.15h-1.76l.13-1.03a.538.538 0 0 0-.11-.42c-.1-.1-.21-.16-.34-.16-.36 0-.56.16-.6.46l-.15 1.15h-.86a.51.51 0 0 0-.4.16c-.09.11-.13.24-.13.38 0 .35.18.52.53.52h.73l-.22 1.8h-.9c-.36 0-.54.18-.53.53 0 .35.18.52.53.52h.77l-.15 1.16c-.02.18.01.31.11.42.09.11.2.17.34.17.36 0 .56-.16.6-.46l.17-1.29h1.76l-.15 1.16c-.02.18.01.31.11.42.09.11.2.17.34.17.36 0 .56-.16.6-.46l.16-1.29h.85c.36 0 .53-.17.53-.53-.01-.34-.19-.52-.53-.52h-.72l.23-1.8h.88c.17 0 .3-.05.39-.16.09-.1.14-.23.14-.38zm-2.48.54L18 8.53h-1.76l.22-1.8h1.76z"/>
        </g>
        <g stroke="#7A8798" stroke-width=".794">
            <path d="M23.69 13.302v2.38M22.5 14.492h2.381"/>
        </g>
        <g stroke="#98AAC1" stroke-width=".794">
            <path d="M1.19.5v2.381M0 1.69h2.381M1.19.5v2.381M0 1.69h2.381"/>
        </g>
    </g>
</svg>
