<svg xmlns="http://www.w3.org/2000/svg" width="24" height="24" fill-rule="evenodd" xmlns:v="https://vecta.io/nano"><path d="M0 12C0 5.373 5.373 0 12 0s12 5.373 12 12-5.373 12-12 12S0 18.627 0 12" fill="#00b900"/><path d="M11.913 6C8.377 6 5.5 8.318 5.5 11.167c0 2.554 2.282 4.693 5.364 5.097.208.045.493.137.565.315.065.16.042.413.02.575l-.091.545c-.028.162-.129.63.555.344s3.694-2.16 5.04-3.697c.929-1.012 1.374-2.039 1.374-3.179C18.327 8.317 15.45 6 11.913 6" fill="#fff"/><path d="M10.13 9.813a.126.126 0 0 0-.123.128v2.865c0 .07.055.127.124.127h.445a.126.126 0 0 0 .124-.127V9.94a.126.126 0 0 0-.124-.128h-.445zm-.597 2.403H8.291V9.941a.128.128 0 0 0-.127-.128h-.457a.128.128 0 0 0-.127.128v2.864a.125.125 0 0 0 .037.09l.002.003a.125.125 0 0 0 .088.035h1.826c.07 0 .127-.057.127-.128v-.461a.127.127 0 0 0-.127-.128m6.587-1.686c.07 0 .127-.057.127-.127v-.461a.127.127 0 0 0-.127-.129h-1.827a.125.125 0 0 0-.088.037l-.001.001-.002.002a.128.128 0 0 0-.035.088v2.864a.126.126 0 0 0 .04.093.125.125 0 0 0 .086.035h1.827c.07 0 .127-.057.127-.128v-.461a.127.127 0 0 0-.127-.128h-1.242v-.484h1.242c.07 0 .127-.057.127-.128v-.461a.127.127 0 0 0-.127-.129h-1.242v-.483h1.242zm-2.43-.717h-.47a.13.13 0 0 0-.13.128v1.702L11.755 9.87l-.01-.013h-.002a.056.056 0 0 0-.007-.008l-.003-.003a.054.054 0 0 0-.007-.005l-.003-.003-.007-.005-.004-.002-.011-.006-.007-.003-.005-.001-.007-.002a.017.017 0 0 0-.005-.002l-.013-.002-.007-.001h-.48a.13.13 0 0 0-.13.127v2.865c0 .07.058.127.13.127h.47c.071 0 .13-.057.13-.127v-1.702l1.337 1.775c.009.013.02.023.033.032h.001l.008.006.004.001a.026.026 0 0 0 .006.004.038.038 0 0 0 .007.002l.004.002.008.002h.002c.01.004.022.005.033.005h.47c.072 0 .13-.057.13-.127V9.94a.13.13 0 0 0-.13-.128" fill="#00b900"/></svg>