<svg xmlns="http://www.w3.org/2000/svg" width="24" height="24" fill-rule="evenodd" xmlns:v="https://vecta.io/nano"><path d="M12 0c6.627 0 12 5.373 12 12s-5.373 12-12 12S0 18.627 0 12 5.373 0 12 0" fill="#fff"/><path d="M12 0c6.627 0 12 5.373 12 12s-5.373 12-12 12S0 18.627 0 12 5.373 0 12 0z" fill="#b1bed0"/><path d="M15.39 5.5a3.09 3.09 0 0 0-2.2.911l-2.423 2.423.56-.054c.521 0 1.033.101 1.503.29l1.509-1.51a1.487 1.487 0 0 1 2.1 2.1l-2.715 2.717c-.562.561-1.54.562-2.101 0l-1.148 1.15a3.09 3.09 0 0 0 2.198.91 3.09 3.09 0 0 0 2.2-.91l2.716-2.717a3.092 3.092 0 0 0 .911-2.2 3.114 3.114 0 0 0-3.11-3.11m-4.234 9.445L9.66 16.44a1.487 1.487 0 0 1-2.1-2.1l2.715-2.717c.562-.561 1.54-.562 2.101 0l1.148-1.15c-1.174-1.174-3.222-1.174-4.398 0L6.411 13.19a3.092 3.092 0 0 0-.911 2.2 3.114 3.114 0 0 0 3.11 3.11 3.09 3.09 0 0 0 2.2-.911l2.39-2.39-.527.051a3.91 3.91 0 0 1-1.517-.305" fill="#fff"/></svg>