<svg xmlns="http://www.w3.org/2000/svg" xmlns:xlink="http://www.w3.org/1999/xlink" width="23.25" height="23.25" xmlns:v="https://vecta.io/nano"><defs><path id="A" d="M0 .81h14.19v15.658H0z"/></defs><g fill="none" fill-rule="evenodd"><g transform="translate(.969 3.065)"><mask id="B" fill="#fff"><use xlink:href="#A"/></mask><path d="M5.991 9.617h2.206L7.095 6.842 5.99 9.617zm2.92.97H5.277a.483.483 0 0 1-.45-.664l1.817-4.57c.147-.37.754-.37.901 0l1.817 4.57a.486.486 0 0 1-.45.663zm3.33 5.881a1.94 1.94 0 0 1-1.809-1.228l-.687-1.728H4.443l-.686 1.728a1.95 1.95 0 0 1-2.528 1.09A1.933 1.933 0 0 1 .16 15.29a1.935 1.935 0 0 1-.02-1.489L4.634 2.49A2.638 2.638 0 0 1 7.095.81a2.64 2.64 0 0 1 2.46 1.68l1.704 4.287a.484.484 0 1 1-.901.358L8.655 2.848a1.675 1.675 0 0 0-1.56-1.07c-.69 0-1.302.42-1.56 1.07L1.04 14.16a.975.975 0 0 0 .547 1.27.98.98 0 0 0 1.27-.547l.808-2.035a.485.485 0 0 1 .451-.305h5.959c.198 0 .378.121.45.305l.81 2.035a.985.985 0 0 0 1.27.547.975.975 0 0 0 .546-1.27l-1.976-4.97a.486.486 0 0 1 .901-.357l1.974 4.968a1.927 1.927 0 0 1-.02 1.49 1.93 1.93 0 0 1-1.07 1.038 1.94 1.94 0 0 1-.718.138z" fill="#515c69" mask="url(#B)"/></g><g fill="#515c69"><path d="M21.167 19.277a.484.484 0 0 1-.45-.306l-2.012-5.06-2.01 5.06a.487.487 0 0 1-.63.272.486.486 0 0 1-.27-.63l2.149-5.409a.819.819 0 0 1 1.524 0l2.15 5.409a.486.486 0 0 1-.451.664"/><path d="M20.605 17.863h-3.798a.485.485 0 0 1 0-.969h3.798a.485.485 0 0 1 0 .969"/></g></g></svg>