<svg xmlns="http://www.w3.org/2000/svg" width="20" height="20"><path fill="#515C69" d="M13.195 9.643c-.957-.572-2.127-.857-3.19-1.143-.32-.095-.533-.095-.745-.19-1.49-.381-2.553-1.24-2.66-2.191-.106-.762.426-1.524 1.383-2 .213-.095.426-.19.639-.19l.319-.096v1.905c0 .476.425.762.85.762.426 0 .851-.381.851-.762V3.833l.32.096c.85.19 1.489.38 2.127.666.212.095.425.095.638.095.213 0 .425-.19.532-.285.212-.381.106-.953-.32-1.143a9.826 9.826 0 0 0-2.978-1.048h-.212v-.952c0-.476-.426-.762-.851-.762-.426 0-.851.286-.851.762v.857l-.213.095c-.638 0-1.17.19-1.702.476-1.595.762-2.446 2.191-2.233 3.62.213 1.619 1.595 2.952 3.829 3.523l.319.096v5.428h-.32c-1.063-.19-1.914-.571-2.233-1.047a.942.942 0 0 0-1.17-.381c-.425.19-.638.666-.425 1.047.638 1.048 2.02 1.81 3.829 2h.213v1.334c0 .476.425.761.85.761.426 0 .851-.38.851-.761v-1.334h.213c.213 0 .426-.095.638-.19 1.702-.476 2.978-1.81 3.191-3.429.426-1.619-.213-2.952-1.489-3.714zm-.049 3.602c-.108.98-.977 1.863-2.063 2.157l-.434.098v-5l.325.098c.435.196.87.294 1.086.49 1.195.785 1.086 1.765 1.086 2.157z"/></svg>