<svg width="26" height="30" viewBox="0 0 26 30" xmlns="http://www.w3.org/2000/svg" xmlns:xlink="http://www.w3.org/1999/xlink">
    <defs>
        <path d="M.008 0c-.033.37.045.894.1 1.184.17.89.724 1.457 1.235 2.032.016.015.749.7 1.32 1.784.34-.601.215-1.236-.13-1.908-.336-.653-1.356-1.448-1.994-2.088C.191.655.008 0 .008 0" id="p403q07lna"/>
    </defs>
    <g fill="none" fill-rule="evenodd">
        <path d="M18.099 21.363c-.977.036-1.447-.47-1.411-1.52v-5.1h-.597c-.036.796-.109 1.52-.217 2.17l.325.163c.109.073.2.127.272.163v1.682a14.154 14.154 0 0 0-.977-.597c-.398 1.194-1.194 2.316-2.388 3.365v-1.574a7.46 7.46 0 0 0 1.031-2.496 19.054 19.054 0 0 0-.814-.326v-1.248c.217.036.507.109.869.217.108.037.18.055.217.055.072-.47.108-.995.108-1.574h-.977v-1.248h1.031V12.03h1.574V13.495h2.116v6.132c0 .253.109.362.326.325.217 0 .326-.108.326-.325v-.651h.922v1.03c0 .905-.416 1.357-1.248 1.357H18.1zm-10.365-7.38V12.79h1.682v-.76h1.791v.76h1.737v1.194h-1.737v.814h2.062v1.14H7.3v-1.14h2.116v-.814H7.734zm.109 5.264v-1.14H9.47v-.868h1.736v.868h1.574v1.14h-1.574v.76c.18 0 .47-.037.868-.109.434-.036.76-.072.977-.108v.976c-1.302.398-3.202.633-5.698.706v-1.357h2.117v-.868H7.843zm6.511 5.047a8.27 8.27 0 0 0-.542-2.55h1.736c.362.904.58 1.754.651 2.55h-1.845zm-3.255 0c0-.615-.127-1.466-.38-2.55H12.4c.29.904.47 1.754.543 2.55h-1.845zm-3.799 0c.145-.833.38-1.683.705-2.55h1.683c-.326 1.12-.507 1.97-.543 2.55H7.3zm10.256 0c-.108-.724-.307-1.574-.597-2.55h1.682c.398.976.633 1.826.706 2.55h-1.791zM7.3 17.89v-.922c.724-.145 1.176-.416 1.357-.814h1.465c-.253.94-1.194 1.52-2.822 1.736zm5.86 0c-1.555-.18-2.441-.76-2.658-1.736h1.41c.181.398.597.67 1.249.814v.922z" fill="#E03F19" fill-rule="nonzero"/>
        <use stroke="#E03F19" stroke-width=".8" stroke-linecap="round" stroke-linejoin="round" xlink:href="#p403q07lna" transform="translate(15.864 2.6)"/>
        <path d="M12.652.6s-.345.293-.77.801c-.409.487-.892 1.17-1.221 1.987-.357.882-.533 1.916-.239 3.02.05.183.146.432.258.726.129.402.312 1.264.033 2.399C9.828 6.928 7.36 6.444 7.36 6.444c.554.863.672 3.95-.5 5.543-.905 1.228-.998 2.197-.935 2.764a2.823 2.823 0 0 1-.542-.759c-.383-.795-.35-1.456.032-2.207-.404.14-1.732 1.762-2.362 3.508-.971 2.694-.635 5.907.786 8.4 1.474 2.585 4.147 4.14 7.04 4.703.698.136 1.404.203 2.11.204h.015c.933 0 1.867-.117 2.78-.344 2.86-.71 5.385-2.436 6.692-5.103 1.21-2.47 1.31-5.215.495-7.774a11.875 11.875 0 0 0-.404-1.084c-.546-1.27-1.454-2.985-2.935-4.914-.05.746-.179 2.045-.502 3.26-1.026-2.156-2.68-4.038-3.084-4.458C14.854 6.94 13.33 5.5 12.655 3.68c-.322-.74-.56-1.865.086-3.08h-.09z" stroke="#E03F19" stroke-linejoin="round" stroke-width="1.2"/>
    </g>
</svg>
