<svg xmlns="http://www.w3.org/2000/svg" width="25" height="25" xmlns:v="https://vecta.io/nano"><style><![CDATA[.B{stroke-linecap:round}.C{stroke:#1c1e2f}.D{stroke-width:.81}.E{stroke-linejoin:round}]]></style><g fill="none" fill-rule="evenodd"><path d="M23 11.5C23 17.299 18.299 22 12.5 22S2 17.299 2 11.5 6.701 1 12.5 1 23 5.701 23 11.5" fill="#e1e6f0"/><circle fill="#e65123" cx="6.5" cy="5.5" r="5.5"/><path stroke="#fff" stroke-width="1.1" d="M3.75 5.5h5.5M6.5 8.25v-5.5" class="B"/><g fill="#fff"><path d="m20.702 21.689-5.765 1.528-5.862.887-2.955-2.235-1.499-3.592.448-1.065 3.818-4.05h2.503l8.733 1.365z"/><path d="M21.126 21.869c-2.624.097-4.423 2.01-9.736 2.01m.8-7.974c-1.16-1.16-.62-2.623-.43-3.152.247-.683.262-1.262.07-1.602a38.541 38.541 0 0 1-.788-1.471c-1.007-2.057.33-4.292 1.613-4.176.624.057.971.768 1.067 1.446.167 1.186.671 2.517 1.508 3.408 1.068 1.138 1.777 2.099 2.606 3.103.516.624 1.724.888 2.592 1M8.79 14.098c.163.188.278.42.32.683a1.391 1.391 0 0 1-1.176 1.587l-1.798.278a1.41 1.41 0 0 1-1.617-1.154c-.122-.757.364-1.491 1.188-1.782 2.399-.846 4.792-1 4.69-1" class="B C D E"/></g><path d="M9.706 16.754a1.37 1.37 0 0 1 .33.695 1.391 1.391 0 0 1-1.176 1.587l-2.622.395c-.771.12-1.495-.397-1.617-1.154a1.391 1.391 0 0 1 1.176-1.587l.339-.044m.492 2.727c-.747.116-1.256.8-1.139 1.532a1.366 1.366 0 0 0 1.566 1.118l1.74-.27a1.347 1.347 0 0 0 1.139-1.536 1.326 1.326 0 0 0-.097-.327" class="B C D E"/><path d="M7.633 21.933c-.678.105-1.131.767-1.018 1.47h0c.113.703.753 1.188 1.43 1.083l1.142-.184c.677-.105 1.135-.76 1.022-1.463a1.335 1.335 0 0 0-.154-.443" class="B C D E"/><g fill="#f3a891"><path d="M23.553 22.518l-1.322.12a1.037 1.037 0 0 1-1.134-.925l-.667-7.114a1.03 1.03 0 0 1 .943-1.113l1.322-.119a1.037 1.037 0 0 1 1.134.925l.667 7.114a1.03 1.03 0 0 1-.943 1.112z" class="C D E"/><circle cx="19" cy="8" r="3"/></g><g class="B"><path stroke="#fff" stroke-width=".84" d="M17.5 8h3M19 9.5v-3"/><path d="M1.25 12.5h2.5M2.5 13.75v-2.5m18-8.75h4m-2 2v-4" stroke="#e65123"/></g></g></svg>