<svg xmlns="http://www.w3.org/2000/svg" xmlns:xlink="http://www.w3.org/1999/xlink" width="164" height="141" xmlns:v="https://vecta.io/nano"><style><![CDATA[.B{fill:#fff}.C{fill:#edf1f8}.D{stroke-linecap:round}.E{stroke-linejoin:round}.F{stroke-width:.9}]]></style><defs><path id="A" d="M0 0h41.462v41.312H0z"/><path d="M0 7.634c0 4.217 3.426 7.634 7.655 7.634s7.655-3.417 7.655-7.634S11.883 0 7.655 0 0 3.418 0 7.634" id="B"/><path id="C" d="M0 0h46.36v78.134H0z"/></defs><g fill="none" fill-rule="evenodd"><g transform="rotate(8 -537.557 195.446)"><ellipse cx="14.682" cy="15.758" rx="14.421" ry="14.369" class="C"/><ellipse stroke="#edf1f8" cx="14.421" cy="14.369" rx="13.971" ry="13.919" class="B F"/><g fill="#e03f19" opacity=".201"><path d="M22.515 13.356l-1.129 6.025c-.048.334-.185 1.275-1.873 1.275h-8.096c-.677 0-.887-.277-.993-.85-.005-.022-.13.093 0-.062l-.053-6.224.037-.009c.064-.014 1.522-1.068 2.018-1.597.825-.879 1.905-2.533 1.905-3.695l.157-1.929c.349-.031 1.094.14 1.449.36s.571.708.571 1.388v3.493c0 .297.286.54.635.54l1.356-.157h2.651c.317 0 .63.104.884.284.38.28.56.72.481 1.158z" stroke="#fff" stroke-width=".594" fill-rule="nonzero"/><path d="M6.31 11.512h2.703v9.144H6.31z"/></g></g><g opacity=".603" stroke="#515c69" class="D E F"><path d="M16.553 97.83l-4.853 5.45m41.906-6.488l6.304 3.74m-45.685-6.417L8.746 95.54m45.935-2.982l5.659-.283m-6.805-4.165l5.587-4.587m-45.175 6.013l-6.736-2.7m66.904 5.357l3.397-5.508c-1.006 1.98-1.57 11.464-1.698 11.088M65.175 92.12c.783 0 6.11-.189 6.11-.189"/><path d="M68.373 89.25c-.034-.104-.135 1.473-.19 1.88-.183 1.349-.048 2.778-.048 4.14"/></g><g transform="matrix(-1 0 0 1 41.462 96.994)"><mask id="D" class="B"><use xlink:href="#A"/></mask><path d="M29.445 16.771c-1.948-8.366-5.138-4.12-6.362-5.049-2.597-1.972-3.777 2.157-4.976.404S14.097 3.06 13.04.808s-2.593.569-2.177 2.666c.116.586.392 3.754 3.36 9.747.67 1.356 1.85 4.033 1.85 4.033s-1.387 3.169-1.015 4.212c.832 2.33 3.424 4.709 6.915 8.755 6.701 7.77 11.726 22.886 15.253 32.547 2.365 6.482 4.126 13.114 5.483 19.867l16.804.01c-5.253-14.097-25.29-52.397-27.506-55.934-2.184-3.485-.615-1.574-2.562-9.94" fill="#ffe7d7" mask="url(#D)" transform="rotate(349 35.153 41.312)"/></g><path d="M113.042 1.796H22.873c-4.665 0-8.452 3.767-8.452 8.413v10.818c0 4.647 3.787 8.414 8.452 8.414h75.409l11.526 7.883v-7.883h3.234c4.665 0 8.447-3.767 8.447-8.414V10.209c0-4.646-3.782-8.413-8.447-8.413" class="C"/><path d="M113.234 0H23.065c-4.665 0-8.451 3.766-8.451 8.413v10.818c0 4.647 3.786 8.414 8.451 8.414h75.409L110 35.528v-7.883h3.234c4.665 0 8.447-3.767 8.447-8.414V8.413c0-4.647-3.782-8.413-8.447-8.413" fill="#f6f8fc"/><g transform="translate(21.22 6.416)"><mask id="E" class="B"><use xlink:href="#B"/></mask><use fill="#e2e8f1" xlink:href="#B"/><path d="M10.78 12.769a22.187 22.187 0 0 0-1.11-.67c.347-.41.581-1.028.607-1.44.062-.968-.126-1.887-.288-2.831.511-.682.929-1.524.734-2.3-.43-1.714-2.143-1.954-2.686-1.842-.282.059-.754.364-1.032.247-.219-.092-.398-.663-.531-.851-.227-.318-.843-.48-1.322-.428a.992.992 0 0 0-.412.126c-.4.25-.696.862-.644 1.32.016.15.244.363.166.465-.566.741-1.323 1.109-1.591 2.115-.488 1.818 1.054 5.77 3.845 5.67l-.184.117c-1.277.817-2.585 1.657-3.719 2.663-.371.33-1.235 1.08-1.01 1.674.377.98 1.985 1.009 2.83 1.068 2.002.144 4.374.359 6.347-.245.458-.142.843-.37 1.256-.604.254-.146.516-.286.729-.494 1.425-1.398-.863-3.026-1.985-3.76" mask="url(#E)" class="B"/></g><path d="m41.254 20.25 12.885-.021M41.388 8.034l67.736-.021M41.388 14.32l67.736-.02" stroke="#e2e8f1" stroke-width="2.7" class="D E"/><path d="M142.725 56.351 54.868 36.068c-4.546-1.05-9.082 1.768-10.128 6.296l-2.433 10.54c-1.045 4.528 1.797 9.05 6.343 10.1l73.475 16.963 9.458 10.274 1.773-7.68 3.15.727c4.546 1.05 9.08-1.77 10.124-6.299l2.434-10.54c1.045-4.528-1.793-9.048-6.339-10.098" class="C"/><path d="M143.317 54.644 55.46 34.361c-4.546-1.05-9.083 1.768-10.128 6.296l-2.434 10.54c-1.045 4.528 1.797 9.05 6.343 10.1l73.475 16.963 9.458 10.275 1.774-7.682 3.15.728c4.546 1.05 9.078-1.77 10.124-6.299l2.433-10.54c1.045-4.528-1.793-9.048-6.338-10.098" fill="#f6f8fc"/><g transform="rotate(13 -150.295 249.254)"><mask id="F" class="B"><use xlink:href="#C" href="#B"/></mask><use fill="#e2e8f1" xlink:href="#C" href="#B"/><path d="M10.78 12.769a22.187 22.187 0 0 0-1.11-.67c.347-.41.581-1.028.607-1.44.062-.968-.126-1.887-.288-2.831.511-.682.929-1.524.734-2.3-.43-1.714-2.143-1.954-2.686-1.842-.282.059-.754.364-1.032.247-.219-.092-.398-.663-.531-.851-.227-.318-.843-.48-1.322-.428a.992.992 0 0 0-.412.126c-.4.25-.696.862-.644 1.32.016.15.244.363.166.465-.566.741-1.323 1.109-1.591 2.115-.488 1.818 1.054 5.77 3.845 5.67l-.184.117c-1.277.817-2.585 1.657-3.719 2.663-.371.33-1.235 1.08-1.01 1.674.377.98 1.985 1.009 2.83 1.068 2.002.144 4.374.359 6.347-.245.458-.142.843-.37 1.256-.604.254-.146.516-.286.729-.494 1.425-1.398-.863-3.026-1.985-3.76" mask="url(#F)" class="B"/></g><g class="D"><path stroke="#e2e8f1" stroke-width="2.7" d="m68.627 58.183 12.56 2.878M71.506 46.31l66.004 15.217M70.092 52.436l66.004 15.217" class="E"/><path stroke="#515c69" opacity=".602" d="M155.549 59.362l5.576.997m-7.69-5.556l6.476-3.213" class="F"/></g><g transform="matrix(-1 0 0 1 132.89 62.866)"><mask id="G" class="B"><use xlink:href="#C"/></mask><path d="M37.735 24.116l8.625-12.548s-1.123-1.378-3.569 1.127-2.07.432-1.052-1.754c.684-1.463 2.956-6.715 3.081-7.893.207-1.95-1.49-1.98-1.49-1.98s-3.623 8.173-4.35 7.778c-.57-.31 1.77-4.472 2.586-6.72C42.32.056 40.586 0 40.586 0s-1.462 1.465-1.62 1.484c-.23.025-.646-.829-1.641-.23L35.79 3.677c-1.08-1.691-5.173 4.753-5.221 6.497-.056 2.049-.958 7.128-2.658 11.603-2.778 7.309-7.509 16.68-12.614 26.467L0 78.134h17.424c2.003-6.982 4.975-16.157 8.117-25.036 4.493-12.692 9.335-24.779 12.194-28.982" fill="#ffe7d7" mask="url(#G)"/></g><path d="M110.934 113.022c2.9-1.62 6.691-1.855 6.781-1.71l3.624 6.953-.595.811c-.607.738-1.335 1.47-2.194 1.918-1.335.696-3.058.638-4.497.44-1.651-.226-3.147-.628-4.597-1.482-.392-.23-.712-.563-1.027-.899l-.86-2.4c-.028-.08 2.252-3.01 3.365-3.631" fill="#dce1ea"/><path d="M107.027 122.58c-.882-2.203-.898-4.923 7.2-9.18 6.6-3.47 9.595 2.407 9.595 2.407s1.244-.696 3.399 3.452c6.334 12.202 8.843 12.486 12.487 21.741h-29.493l-2.909-12.18c-1.067-3.429-.28-6.24-.28-6.24" class="C"/><path d="M123.822 115.807s-.524.378-2.294.924c-3.381 1.044-6.51 2.561-9.713 4.037-1.916.884-3.54 1.049-4.917 2.655m11.538-10.653c.7.85 1.292 1.723 1.797 2.695.151.289.405.659.434.985m-4.757-3.012c.198.446-.033-.057.633 1.019.461.745.636 1.173 1.093 2.072.16.314.543.992.412 1.32m-4.666-3.16c-.133-.3.094.13.149.234l.637 1.248c.335.64.643 1.286.938 1.944.098.221.354.52.377.76m-4.078-2.825c-.02-.221-.6-1.465.527 1.592.286.772.79 1.517 1.024 2.29m-3.629-2.461c.07.74.483 1.817.783 2.594.115.3.46.695.488.997m-2.978-1.849c.03.314.006.113.236.79.172.508.435 1.405.775 1.942" stroke="#e0e6f0" stroke-width=".676" class="D E"/><path d="M121.803 125.718c.403-.61 1.02-1.285 1.736-1.54 2.974-1.054 5.499 1.763 7.13 3.77 2.873 3.533 5.056 8.33 6.733 13.052h-12.994c-.838-2.192-1.635-4.408-2.263-6.62-.799-2.819-2.135-5.943-.342-8.662" fill="#e0e6f0"/></g></svg>