<svg xmlns="http://www.w3.org/2000/svg" xmlns:xlink="http://www.w3.org/1999/xlink" width="38" height="38" xmlns:v="https://vecta.io/nano"><defs><path id="A" d="M0 0h5.658v5.658H0z"/></defs><g fill="none" fill-rule="evenodd"><circle fill="#e03f19" cx="19" cy="19" r="19"/><path d="M28.36 11.343L25.656 8.64c-.25-.251-.753-.157-1.12.209l-1.409 1.41.149.149.42.42 3.018 3.018.025.025 1.41-1.41c.366-.366.46-.868.21-1.12m-5.493.319l-.568-.57-9.922 9.921.57.57 2.474 2.474.569.569 9.92-9.922-.568-.568z" fill="#fff"/><g transform="translate(9.5 21.842)"><mask id="B" fill="#fff"><use xlink:href="#A"/></mask><path d="M4.95 2.903 2.754.709 2.42.373 2.046 0 .041 5.092c-.071.181-.049.358.06.466a.384.384 0 0 0 .336.094.6.6 0 0 0 .13-.035l5.091-2.005-.284-.284-.425-.425z" fill="#fff" mask="url(#B)"/></g><path d="M13.363 28.296c7.307 3.338 8.313-7.224 14.779-1.974" stroke="#fff" stroke-linecap="round" stroke-linejoin="round"/></g></svg>