<svg xmlns="http://www.w3.org/2000/svg" xmlns:xlink="http://www.w3.org/1999/xlink" width="44" height="44"><defs><path id="a" d="M0 0h36v35.953H0z"/></defs><g fill="none" fill-rule="evenodd"><path fill="#FFF" fill-rule="nonzero" d="M3 0h38a3 3 0 0 1 3 3v38a3 3 0 0 1-3 3H3a3 3 0 0 1-3-3V3a3 3 0 0 1 3-3z"/><g transform="translate(4 3.5)"><mask id="b" fill="#fff"><use xlink:href="#a"/></mask><path fill="#383838" d="M25.917 20.727c-1.46 1.462-3.052 2.877-5.232 4.695l-2.034-1.035a1.012 1.012 0 0 0-.454-.11h-3.701a.91.91 0 0 0-.411.107c-1.572-1.341-2.832-2.485-4.001-3.657-4.398-4.314-4.045-8.267-4.045-8.267a6.73 6.73 0 0 1-.005-.247c0-3.326 2.806-6.21 6.267-6.21 2.53 0 4.709 1.63 5.699 3.704.99-2.075 3.169-3.704 5.7-3.704 3.46 0 6.267 2.883 6.267 6.21 0 .084-.003.166-.007.248 0 0 .355 3.952-4.043 8.266M30.979 2.27c-6.09-4.591-12.98-.798-12.98-.798s-6.887-3.793-12.978.799c-6.09 4.593-6.113 11.773-2.873 17.412 2.409 4.195 6.447 8.064 8.359 9.773h-.002s1.438 1.858 1.83 1.858h.374l5.64 4.64 2.102-1.296 2.313-2.49 1.19.986a.927.927 0 0 0 1.3-.122l.04-.048a.927.927 0 0 0-.121-1.302l-.94-.774c.557-.546 1.262-1.453 1.262-1.453h-.001c1.912-1.708 5.949-5.577 8.359-9.772 3.239-5.64 3.216-12.82-2.874-17.412" mask="url(#b)"/></g><path stroke="#FFF" stroke-linecap="round" stroke-linejoin="round" stroke-width=".5" d="m24.852 34.085 3.1 2.57a.928.928 0 0 0 1.303-.123l.04-.049a.927.927 0 0 0-.122-1.3l-5.525-4.553a1.004 1.004 0 0 0-.638-.229h-4.005c-.666 0-1.206-.637-1.206-1.422 0-.785.54-1.448 1.206-1.448"/><path fill="#383838" d="m24.306 36.11 3.141 2.608a.96.96 0 0 0 1.347-.126.96.96 0 0 0-.127-1.346l-3.816-3.16"/><path stroke="#FFF" stroke-linecap="round" stroke-linejoin="round" stroke-width=".5" d="m24.306 36.11 3.141 2.608a.96.96 0 0 0 1.347-.126h0a.96.96 0 0 0-.127-1.346l-3.816-3.16"/><path fill="#383838" d="m23.886 38.244 2.322 1.923a.96.96 0 0 0 1.346-.127.959.959 0 0 0-.126-1.345l-3.121-2.586"/><path stroke="#FFF" stroke-linecap="round" stroke-linejoin="round" stroke-width=".5" d="m23.886 38.244 2.322 1.923a.96.96 0 0 0 1.346-.127h0a.959.959 0 0 0-.126-1.345l-3.121-2.586"/><path fill="#383838" d="m21.94 39.072 2.076 1.763a.958.958 0 0 0 1.347-.126.958.958 0 0 0-.127-1.345l-1.35-1.12"/><path stroke="#FFF" stroke-linecap="round" stroke-linejoin="round" stroke-width=".5" d="m21.94 39.072 2.076 1.763a.958.958 0 0 0 1.347-.126h0a.958.958 0 0 0-.127-1.345l-1.35-1.12"/><path fill="#383838" d="m18.11 34.927-2.047 1.697a.914.914 0 0 1-1.284-.12l-.056-.067a.915.915 0 0 1 .12-1.284l2.049-1.697a.914.914 0 0 1 1.283.12l.056.068a.915.915 0 0 1-.12 1.283"/><path stroke="#FFF" stroke-width=".465" d="m18.11 34.927-2.047 1.697a.914.914 0 0 1-1.284-.12l-.056-.067a.915.915 0 0 1 .12-1.284l2.049-1.697a.914.914 0 0 1 1.283.12l.056.068a.915.915 0 0 1-.12 1.283z"/><path fill="#383838" d="m20 35.845-3.386 2.806a.915.915 0 0 1-1.284-.12l-.056-.068a.914.914 0 0 1 .12-1.284l3.387-2.806a.914.914 0 0 1 1.283.121l.056.067a.915.915 0 0 1-.12 1.284"/><path stroke="#FFF" stroke-width=".465" d="m20 35.845-3.386 2.806a.915.915 0 0 1-1.284-.12l-.056-.068a.914.914 0 0 1 .12-1.284l3.387-2.806a.914.914 0 0 1 1.283.121l.056.067a.915.915 0 0 1-.12 1.284z"/><path fill="#383838" d="m21.237 37.296-3.386 2.806a.915.915 0 0 1-1.284-.121l-.056-.067a.914.914 0 0 1 .121-1.284l3.386-2.806a.914.914 0 0 1 1.283.12l.056.068a.915.915 0 0 1-.12 1.284"/><path stroke="#FFF" stroke-width=".465" d="m21.237 37.296-3.386 2.806a.915.915 0 0 1-1.284-.121l-.056-.067a.914.914 0 0 1 .121-1.284l3.386-2.806a.914.914 0 0 1 1.283.12l.056.068a.915.915 0 0 1-.12 1.284z"/><path fill="#383838" d="m21.536 39.532-1.585 1.313a.914.914 0 0 1-1.283-.12l-.056-.068a.915.915 0 0 1 .12-1.284l1.585-1.313a.914.914 0 0 1 1.283.121l.056.067a.915.915 0 0 1-.12 1.284"/><path stroke="#FFF" stroke-width=".465" d="m21.536 39.532-1.585 1.313a.914.914 0 0 1-1.283-.12l-.056-.068a.915.915 0 0 1 .12-1.284l1.585-1.313a.914.914 0 0 1 1.283.121l.056.067a.915.915 0 0 1-.12 1.284z"/><path fill="#383838" d="M15.825 19.168c0-.373.25-.846.811-.846.556 0 .83.438.83.834 0 .32-.209.841-.824.841-.592 0-.817-.52-.817-.829m1.628 1.278h.012v.356h.982v-3.285h-.982v.35h-.012c-.119-.202-.42-.462-.959-.462-.876 0-1.65.674-1.65 1.751 0 .941.608 1.758 1.65 1.758.385 0 .793-.148.96-.468m4.076-2.757c-.176-.154-.526-.284-.84-.284-.585 0-.792.302-.893.46h-.012v-.348h-.917v3.285h.982v-1.787c0-.202 0-.687.563-.687.514 0 .514.45.514.68v1.794h.983v-2.054c0-.645-.202-.905-.38-1.06m2.03 3.22c.25 0 .651-.035.852-.455h.012v.349h.93v-3.285h-.983v1.805c0 .52-.278.669-.562.669-.527 0-.527-.432-.527-.657v-1.817H22.3v1.965c0 .45.035.687.296 1.012.29.367.763.414.964.414m3.868-2.675c.51 0 .704.367.746.563h-1.492a.726.726 0 0 1 .746-.563m.012 1.846c-.384 0-.71-.23-.769-.62h2.462c.011-.077.023-.13.023-.26 0-1.002-.733-1.795-1.734-1.795-1 0-1.722.848-1.722 1.765 0 .976.8 1.738 1.74 1.738.337 0 .663-.1.935-.294.278-.19.51-.474.668-.841h-1.005c-.136.173-.296.308-.598.308"/></g></svg>