<svg xmlns="http://www.w3.org/2000/svg" xml:space="preserve" id="logo_x5F_anue_x28_w_x29_" x="0" y="0" style="enable-background:new 0 0 108 44" version="1.1" viewBox="0 0 108 44"><style>.st0{fill:#fff}</style><path d="M80 35h17.5l-6.7 2v4c0 .7-.5 1-1.1 1-1.1 0-3-.1-4.6-.2l.7 2.1c1.2.1 2.6.1 4.1.1 2.4 0 3.6-1 3.6-2.9v-2.8l9.7-3.4v-1.8H80V35zm21-9.5H83.1c-.3 0-.6.2-.6.6v4.8c0 .3.2.6.6.6l17.9.1c.3 0 .6-.2.6-.6v-5c0-.3-.2-.5-.6-.5zm-1.8 4.2H85v-2.4h14.2v2.4zm-6-11h-2.3V22H79.3v1.9H105V22H93.2zM52.9 33.6l-2 .5c.3 1.4.8 3.2 1.1 5.2l2-.5c-.4-1.9-.8-3.6-1.1-5.2z" class="st0"/><path d="m60.1 26.9 1.7-1.6c-1.5-1.8-2.9-3.5-4.5-5.2l.2-.8-2-.7c-1.4 2.5-3 4.7-5.3 6.7l1 2c.5-.3.9-.8 1.4-1.2v1.4h2.1V30h-3.8v1.9h3.8v8.3l-4.4.7.5 2 10.1-1.6.2-2-4.3.7v-8.1h3.9V30h-3.9v-2.5H59v-1.9h-5.6c1.1-1.1 2-2.4 2.7-3.8 1.4 1.7 2.8 3.4 4 5.1z" class="st0"/><path d="m57.5 38.5 2 .6c.5-1.6 1-3.2 1.5-5l-2-.5c-.4 1.6-.9 3.3-1.5 4.9zm7 2.5v-5.1h9.6c.3 0 .6-.2.6-.6v-7.8c0-.3-.2-.6-.6-.6h-9.6v-4.7h11.4v-2H62.8c-.3 0-.6.2-.6.6v21.6c0 .3.2.6.6.6h13.3v-2H64.5zm0-12.2h7.9v5.1h-7.9v-5.1zM58.1.5V2C57.2.6 55.6-.2 54 0c-3.9 0-7.1 3.2-7 7.1v.3c0 4.1 2.6 7.4 7 7.4 1.7.2 3.3-.6 4.1-1.9v1.5h4.2V.4h-4.2zm.1 7c.1 1.9-1.4 3.6-3.3 3.7-1.9.1-3.6-1.4-3.7-3.3v-.4c-.1-1.9 1.4-3.6 3.3-3.7 1.9-.1 3.6 1.4 3.7 3.3v.4zM71.9 0c-1.6-.1-3 .7-3.8 1.9V.5h-3.9v14h4.2V6.9c0-.9 0-2.9 2.4-2.9 2.3 0 2.3 1.9 2.3 2.9v7.7h4.2V5.8c0-2.7-.9-3.8-1.6-4.5C74.5.5 73.2 0 71.9 0zm12.2 14.9c1.5.1 2.9-.6 3.6-1.9v1.5h3.9V.5h-4.2v7.7c0 2.3-1.1 2.8-2.4 2.8-2.3 0-2.3-1.8-2.3-2.8V.5h-4.2v8.3c0 1.6.5 3.2 1.5 4.3 1.1 1.2 2.5 1.9 4.1 1.8zM108 7.7c.1-4.2-3.2-7.6-7.2-7.7h-.2c-4.2.2-7.3 3.7-7.1 7.8.2 3.9 3.3 7 7.2 7.1 1.5 0 2.8-.5 3.9-1.2 1.2-.9 2.3-2.1 2.8-3.6h-4.3c-.6.8-1.6 1.4-2.5 1.4-1.6.1-3-1-3.3-2.6h10.5c.2-.4.2-.9.2-1.2zM97.4 5.9c.5-1.8 2.4-2.8 4.1-2.3 1.1.3 1.9 1.1 2.3 2.3h-6.4zM27.5 43.3h-4.1c0-10.7 8.7-19.4 19.4-19.4V28c-8.4 0-15.3 6.9-15.3 15.3z" class="st0"/><path d="M18.7 43.3h-4.1c0-15.6 12.6-28.2 28.2-28.3v4.2c-13.3 0-24.1 10.8-24.1 24.1z" class="st0"/><path d="M3.8 43.3H0C0 19.6 19.2.5 42.8.5v3.8c-21.5.1-38.9 17.5-39 39z" class="st0"/></svg>