<svg xmlns="http://www.w3.org/2000/svg" id="ICON" viewBox="0 0 300 300"><style>.st0{fill:#fff}</style><path d="M276 0H16.6C7.5 0 0 7.5 0 16.6V276c0 13.2 10.8 24 24 24h252c13.2 0 24-10.8 24-24V24c0-13.2-10.8-24-24-24zm-40.6 191.8c-22.9 26.4-74.1 58.5-85.8 63.4-11.7 4.9-10-3.1-9.5-5.9.3-1.7 1.6-9.4 1.6-9.4.3-2.8.7-7.1-.4-9.9-1.2-3.1-6-4.6-9.6-5.4-52.4-7-91.3-43.7-91.3-87.5 0-48.8 49-88.6 109.2-88.6s109.2 39.7 109.2 88.6c0 19.6-7.6 37.2-23.4 54.7z" class="st0"/><path d="M127.4 113.5h-7.7c-1.2 0-2.1 1-2.1 2.1v47.6c0 1.2 1 2.1 2.1 2.1h7.7c1.2 0 2.1-1 2.1-2.1v-47.6c0-1.1-1-2.1-2.1-2.1m52.7 0h-7.7c-1.2 0-2.1 1-2.1 2.1v28.3l-21.8-29.5c0-.1-.1-.1-.2-.2l-.1-.1-.1-.1h-.1l-.1-.1h-.1s-.1 0-.1-.1h-.1s-.1 0-.1-.1H139c-1.2 0-2.1 1-2.1 2.1v47.6c0 1.2 1 2.1 2.1 2.1h7.7c1.2 0 2.1-1 2.1-2.1V135l21.8 29.5c.2.2.3.4.5.5l.1.1h.5c.2 0 .4.1.5.1h7.7c1.2 0 2.1-1 2.1-2.1v-47.6c.2-1-.7-2-1.9-2m-71.2 39.9H88.1v-37.8c0-1.2-1-2.1-2.1-2.1h-7.7c-1.2 0-2.1 1-2.1 2.1v47.6c0 .6.2 1.1.6 1.5.4.4.9.6 1.5.6h30.6c1.2 0 2.1-1 2.1-2.1v-7.7c0-1.1-.9-2.1-2.1-2.1m113.5-28c1.2 0 2.1-1 2.1-2.1v-7.7c0-1.2-1-2.1-2.1-2.1h-30.6c-.6 0-1.1.2-1.5.6-.4.4-.6.9-.6 1.5v47.6c0 .6.2 1.1.6 1.5.4.4.9.6 1.5.6h30.6c1.2 0 2.1-1 2.1-2.1v-7.7c0-1.2-1-2.1-2.1-2.1h-20.8v-8h20.8c1.2 0 2.1-1 2.1-2.1v-7.7c0-1.2-1-2.1-2.1-2.1h-20.8v-8l20.8-.1z" class="st0"/></svg>