<svg xmlns="http://www.w3.org/2000/svg" xml:space="preserve" id="Layer_1" x="0" y="0" style="enable-background:new 0 0 2320 2320" version="1.1" viewBox="0 0 2320 2320"><style>.st1{fill:none}</style><path d="M0 0h2320v2320H0z" style="fill:#fff"/><path d="M800 160h80.5v80.5H800z"/><path d="M880 160h80.5v80.5H880zm240 0h80.5v80.5H1120z"/><path d="M1200 160h80.5v80.5H1200zm240 0h80.5v80.5H1440zm-560 80h80.5v80.5H880z"/><path d="M1200 240h80.5v80.5H1200zm-400 80h80.5v80.5H800z"/><path d="M880 320h80.5v80.5H880zm160 0h80.5v80.5H1040z"/><path d="M1120 320h80.5v80.5H1120z"/><path d="M1200 320h80.5v80.5H1200zm160 0h80.5v80.5H1360z"/><path d="M1440 320h80.5v80.5H1440zm-560 80h80.5v80.5H880zm160 0h80.5v80.5H1040zm160 0h80.5v80.5H1200z"/><path d="M1280 400h80.5v80.5H1280z"/><path d="M1360 400h80.5v80.5H1360z"/><path d="M1440 400h80.5v80.5H1440zm-320 80h80.5v80.5H1120zm-320 80h80.5v80.5H800zm160 0h80.5v80.5H960zm480 0h80.5v80.5H1440z"/><path d="M800 640h80.5v80.5H800zm160 0h80.5v80.5H960zm160 0h80.5v80.5H1120zm160 0h80.5v80.5H1280zm160 0h80.5v80.5H1440z"/><path d="M880 720h80.5v80.5H880z"/><path d="M960 720h80.5v80.5H960zm480 0h80.5v80.5H1440zM160 800h80.5v80.5H160zm160 0h80.5v80.5H320zm320 0h80.5v80.5H640z"/><path d="M720 800h80.5v80.5H720zm160 0h80.5v80.5H880zm240 0h80.5v80.5H1120zm320 0h80.5v80.5H1440zm240 0h80.5v80.5H1680zm240 0h80.5v80.5H1920zm160 0h80.5v80.5H2080zM160 880h80.5v80.5H160zm160 0h80.5v80.5H320zm160 0h80.5v80.5H480z"/><path d="M560 880h80.5v80.5H560zm320 0h80.5v80.5H880zm240 0h80.5v80.5H1120z"/><path d="M1200 880h80.5v80.5H1200zm160 0h80.5v80.5H1360z"/><path d="M1440 880h80.5v80.5H1440zm160 0h80.5v80.5H1600z"/><path d="M1680 880h80.5v80.5H1680zm160 0h80.5v80.5H1840zm160 0h80.5v80.5H2000z"/><path d="M2080 880h80.5v80.5H2080zM320 960h80.5v80.5H320zm160 0h80.5v80.5H480zm160 0h80.5v80.5H640zm160 0h80.5v80.5H800zm240 0h80.5v80.5H1040z"/><path d="M1120 960h80.5v80.5H1120z"/><path d="M1200 960h80.5v80.5H1200z"/><path d="M1280 960h80.5v80.5H1280z"/><path d="M1360 960h80.5v80.5H1360zm480 0h80.5v80.5H1840z"/><path d="M1920 960h80.5v80.5H1920zm160 0h80.5v80.5H2080zm-1920 80h80.5v80.5H160zm160 0h80.5v80.5H320z"/><path d="M400 1040h80.5v80.5H400z"/><path d="M480 1040h80.5v80.5H480zm320 0h80.5v80.5H800z"/><path d="M880 1040h80.5v80.5H880z"/><path d="M960 1040h80.5v80.5H960z"/><path d="M1040 1040h80.5v80.5H1040zm320 0h80.5v80.5H1360z"/><path d="M1440 1040h80.5v80.5H1440z"/><path d="M1520 1040h80.5v80.5H1520z"/><path d="M1600 1040h80.5v80.5H1600z"/><path d="M1680 1040h80.5v80.5H1680zm160 0h80.5v80.5H1840zm-1680 80h80.5v80.5H160zm160 0h80.5v80.5H320zm240 0h80.5v80.5H560z"/><path d="M640 1120h80.5v80.5H640zm400 0h80.5v80.5H1040z"/><path d="M1120 1120h80.5v80.5H1120zm320 0h80.5v80.5H1440zm160 0h80.5v80.5H1600z"/><path d="M1680 1120h80.5v80.5H1680zm400 0h80.5v80.5H2080zm-1760 80h80.5v80.5H320z"/><path d="M400 1200h80.5v80.5H400z"/><path d="M480 1200h80.5v80.5H480zm240 0h80.5v80.5H720zm160 0h80.5v80.5H880z"/><path d="M960 1200h80.5v80.5H960zm160 0h80.5v80.5H1120zm160 0h80.5v80.5H1280z"/><path d="M1360 1200h80.5v80.5H1360zm240 0h80.5v80.5H1600z"/><path d="M1680 1200h80.5v80.5H1680zm320 0h80.5v80.5H2000z"/><path d="M2080 1200h80.5v80.5H2080zm-1920 80h80.5v80.5H160z"/><path d="M240 1280h80.5v80.5H240z"/><path d="M320 1280h80.5v80.5H320zm320 0h80.5v80.5H640zm160 0h80.5v80.5H800z"/><path d="M880 1280h80.5v80.5H880z"/><path d="M960 1280h80.5v80.5H960zm160 0h80.5v80.5H1120zm160 0h80.5v80.5H1280z"/><path d="M1360 1280h80.5v80.5H1360z"/><path d="M1440 1280h80.5v80.5H1440zm400 0h80.5v80.5H1840z"/><path d="M1920 1280h80.5v80.5H1920zm160 0h80.5v80.5H2080zm-1680 80h80.5v80.5H400zm320 0h80.5v80.5H720zm320 0h80.5v80.5H1040z"/><path d="M1120 1360h80.5v80.5H1120zm320 0h80.5v80.5H1440z"/><path d="M1520 1360h80.5v80.5H1520z"/><path d="M1600 1360h80.5v80.5H1600z"/><path d="M1680 1360h80.5v80.5H1680z"/><path d="M1760 1360h80.5v80.5H1760z"/><path d="M1840 1360h80.5v80.5H1840zm-1680 80h80.5v80.5H160z"/><path d="M240 1440h80.5v80.5H240z"/><path d="M320 1440h80.5v80.5H320z"/><path d="M400 1440h80.5v80.5H400zm160 0h80.5v80.5H560z"/><path d="M640 1440h80.5v80.5H640zm160 0h80.5v80.5H800z"/><path d="M880 1440h80.5v80.5H880z"/><path d="M960 1440h80.5v80.5H960zm240 0h80.5v80.5H1200z"/><path d="M1280 1440h80.5v80.5H1280zm160 0h80.5v80.5H1440z"/><path d="M1520 1440h80.5v80.5H1520z"/><path d="M1600 1440h80.5v80.5H1600z"/><path d="M1680 1440h80.5v80.5H1680z"/><path d="M1760 1440h80.5v80.5H1760zm240 0h80.5v80.5H2000zm-1200 80h80.5v80.5H800z"/><path d="M880 1520h80.5v80.5H880zm320 0h80.5v80.5H1200zm240 0h80.5v80.5H1440zm320 0h80.5v80.5H1760zm320 0h80.5v80.5H2080z"/><path d="M800 1600h80.5v80.5H800zm240 0h80.5v80.5H1040zm400 0h80.5v80.5H1440zm160 0h80.5v80.5H1600zm160 0h80.5v80.5H1760zm320 0h80.5v80.5H2080z"/><path d="M960 1680h80.5v80.5H960zm240 0h80.5v80.5H1200zm160 0h80.5v80.5H1360z"/><path d="M1440 1680h80.5v80.5H1440zm320 0h80.5v80.5H1760zm240 0h80.5v80.5H2000zm-1120 80h80.5v80.5H880z"/><path d="M960 1760h80.5v80.5H960z"/><path d="M1040 1760h80.5v80.5H1040z"/><path d="M1120 1760h80.5v80.5H1120z"/><path d="M1200 1760h80.5v80.5H1200zm160 0h80.5v80.5H1360z"/><path d="M1440 1760h80.5v80.5H1440z"/><path d="M1520 1760h80.5v80.5H1520z"/><path d="M1600 1760h80.5v80.5H1600z"/><path d="M1680 1760h80.5v80.5H1680z"/><path d="M1760 1760h80.5v80.5H1760zm320 0h80.5v80.5H2080zm-1200 80h80.5v80.5H880zm240 0h80.5v80.5H1120zm240 0h80.5v80.5H1360z"/><path d="M1440 1840h80.5v80.5H1440zm320 0h80.5v80.5H1760zm160 0h80.5v80.5H1920z"/><path d="M2000 1840h80.5v80.5H2000zm-1200 80h80.5v80.5H800zm160 0h80.5v80.5H960zm160 0h80.5v80.5H1120z"/><path d="M1200 1920h80.5v80.5H1200z"/><path d="M1280 1920h80.5v80.5H1280zm160 0h80.5v80.5H1440z"/><path d="M1520 1920h80.5v80.5H1520zm160 0h80.5v80.5H1680z"/><path d="M1760 1920h80.5v80.5H1760z"/><path d="M1840 1920h80.5v80.5H1840zm160 0h80.5v80.5H2000z"/><path d="M2080 1920h80.5v80.5H2080zm-1200 80h80.5v80.5H880z"/><path d="M960 2000h80.5v80.5H960z"/><path d="M1040 2000h80.5v80.5H1040z"/><path d="M1120 2000h80.5v80.5H1120zm160 0h80.5v80.5H1280zm160 0h80.5v80.5H1440z"/><path d="M1520 2000h80.5v80.5H1520z"/><path d="M1600 2000h80.5v80.5H1600z"/><path d="M1680 2000h80.5v80.5H1680z"/><path d="M1760 2000h80.5v80.5H1760zm-960 80h80.5v80.5H800z"/><path d="M880 2080h80.5v80.5H880zm320 0h80.5v80.5H1200z"/><path d="M1280 2080h80.5v80.5H1280zm160 0h80.5v80.5H1440z"/><path d="M1520 2080h80.5v80.5H1520zm320 0h80.5v80.5H1840zm240 0h80.5v80.5H2080z"/><path d="M244 244h392v392H244z" class="st1"/><path d="M636 160H160v560h560V160h-84zm0 476H244V244h392v392z"/><path d="M1684 244h392v392h-392z" class="st1"/><path d="M2076 160h-476v560h560V160h-84zm0 476h-392V244h392v392z"/><path d="M244 1684h392v392H244z" class="st1"/><path d="M636 1600H160v560h560v-560h-84zm0 476H244v-392h392v392zM320 320h240v240H320zm1440 0h240v240h-240z"/><path d="M320 1760h240v240H320z"/></svg>