<svg xmlns="http://www.w3.org/2000/svg" xmlns:xlink="http://www.w3.org/1999/xlink" width="44" height="44"><defs><path id="a" d="M0 0h32v23H0z"/></defs><g fill="none" fill-rule="evenodd"><path fill="#FFF" d="M3 0h38a3 3 0 0 1 3 3v38a3 3 0 0 1-3 3H3a3 3 0 0 1-3-3V3a3 3 0 0 1 3-3Z"/><g transform="translate(6 10)"><mask id="b" fill="#fff"><use xlink:href="#a"/></mask><path fill="#383838" d="M31.331 3.592c-.368-1.414-1.452-2.527-2.829-2.905C26.007 0 16 0 16 0S5.993 0 3.498.687c-1.377.378-2.461 1.49-2.83 2.905C0 6.154 0 11.5 0 11.5s0 5.346.669 7.908c.368 1.414 1.452 2.528 2.829 2.905C5.993 23 16 23 16 23s10.007 0 12.502-.687c1.377-.377 2.461-1.49 2.83-2.905C32 16.846 32 11.5 32 11.5s0-5.346-.669-7.908" mask="url(#b)"/></g><path fill="#FFF" d="M18 26.5v-10l9 5z"/></g></svg>