<svg xmlns="http://www.w3.org/2000/svg" width="25" height="25" xmlns:v="https://vecta.io/nano"><style><![CDATA[.B{stroke:#1c1e2f}.C{stroke-width:.794}.D{stroke-linecap:round}]]></style><g fill="none" fill-rule="evenodd"><circle fill="#e1e6f0" fill-rule="nonzero" transform="matrix(0 -1 1 0 .4 23.662)" cx="11.331" cy="11.931" r="11.331"/><path d="M12.5 16.667c-1.485 0-4.362.81-4.362 2.38v4.366h8.724v-4.365c0-1.57-2.877-2.381-4.362-2.381" fill="#e03f19"/><path d="M16.862 23.413v-4.365c0-1.57-2.877-2.381-4.362-2.381s-4.362.81-4.362 2.38v4.366" stroke-linejoin="round" class="B C D"/><path d="M21.233 18.65H20.14a1.19 1.19 0 0 0-.841.35l-2.428 2.429h-2.776s-.227 1.984 1.587 1.984h2.775l.784-.785v1.975h3.579v-4.365c0-.876-.71-1.587-1.587-1.587" fill="#f3a891"/><path d="M3.776 18.65h1.093a1.19 1.19 0 0 1 .842.35l2.427 2.429h2.776s.227 1.984-1.586 1.984H6.552l-.784-.785v1.975H2.19v-4.365c0-.876.71-1.587 1.586-1.587" fill="#fff"/><g class="B"><path d="M14.879 21.429v-1.985m-4.758 0v1.985M2.19 24.603v-4.365c0-.876.71-1.587 1.586-1.587h1.093a1.19 1.19 0 0 1 .842.349l2.427 2.429h2.776s.227 1.984-1.586 1.984H6.552l-2.38-2.381m18.648 3.571v-4.365c0-.876-.71-1.587-1.587-1.587H20.14a1.19 1.19 0 0 0-.841.349l-2.428 2.429h-2.776s-.227 1.984 1.587 1.984h2.775l2.38-2.381M5.759 22.619v1.984m13.482-1.984v1.984m-13.482-1.19h13.482" class="C D"/><circle stroke-width=".8" cx="20.5" cy="15" r="2.1" fill="#fff"/></g><path d="M18.845.4a1.19 1.19 0 0 1 1.19 1.19v6.747a1.19 1.19 0 0 1-1.19 1.19H10.12l-2.1 2.733c-.298.397-1.073.195-1.073-.352V9.527h-1.19a1.19 1.19 0 0 1-1.189-1.19V1.59A1.19 1.19 0 0 1 5.758.4h13.086z" fill="#fff"/><path d="M5.759.4h13.086a1.19 1.19 0 0 1 1.19 1.19v6.747a1.19 1.19 0 0 1-1.19 1.19H10.12l-2.1 2.733c-.298.397-1.073.195-1.073-.352V9.527h-1.19a1.19 1.19 0 0 1-1.189-1.19V1.59A1.19 1.19 0 0 1 5.758.4zm3.172 2.778h7.138M8.931 4.765h7.138M8.931 6.352H12.5" class="B C D"/><path d="M25 10.5A1.5 1.5 0 0 1 23.5 9a1.5 1.5 0 0 1-1.5 1.5 1.5 1.5 0 0 1 1.5 1.5 1.5 1.5 0 0 1 1.5-1.5zM3 3.5A1.5 1.5 0 0 1 1.5 2 1.5 1.5 0 0 1 0 3.5 1.5 1.5 0 0 1 1.5 5 1.5 1.5 0 0 1 3 3.5z" stroke="#7a8798" stroke-width=".75"/><g fill="#fff" stroke-width=".8" class="B"><circle cx="4.5" cy="15" r="2.1"/><circle cx="12.5" cy="14" r="2.1"/></g></g></svg>