<svg width="25" height="25" viewBox="0 0 25 25" xmlns="http://www.w3.org/2000/svg">
    <g fill="none" fill-rule="evenodd">
        <g transform="translate(.6 .997)">
            <circle fill="#E1E6F0" fill-rule="nonzero" transform="rotate(-90 12.028 11.331)" cx="12.028" cy="11.331" r="11.331"/>
            <path d="M22.538 8.24h-4.533v5.358c0 .682-.553 1.236-1.236 1.236H9.764v2.472c0 .683.553 1.236 1.236 1.236h7.443l2.104 3.135a.412.412 0 0 0 .754-.23v-2.905h1.237c.682 0 1.236-.553 1.236-1.236V9.477c0-.683-.554-1.236-1.236-1.236z" fill="#E65123" fill-rule="nonzero"/>
            <path d="M18.417 8.24h4.12c.683 0 1.237.554 1.237 1.237v7.829c0 .683-.554 1.236-1.236 1.236H21.3v2.906a.412.412 0 0 1-.754.229l-2.104-3.135H11a1.236 1.236 0 0 1-1.236-1.236v-2.472" stroke="#1C1E2F" stroke-width=".791"/>
            <path d="M0 4.12v9.478c0 .682.553 1.236 1.236 1.236h1.648v4.456c0 .386.484.56.73.262l3.899-4.718h9.793c.683 0 1.236-.554 1.236-1.236V4.12c0-.682-.553-1.236-1.236-1.236H1.236C.553 2.884 0 3.438 0 4.12z" stroke="#1C1E2F" stroke-width=".791" fill="#FFF" fill-rule="nonzero"/>
            <path d="M16.769 8.24H11c-.683 0-1.236.554-1.236 1.237v4.12" stroke="#1C1E2F" stroke-width=".791"/>
        </g>
        <g stroke="#7A8798">
            <path d="M6.5 22v1M6.5 24v1M7 23.5h1M5 23.5h1"/>
        </g>
        <g stroke="#7A8798" stroke-width="1.143">
            <path d="M22.857 3.857 24 5M20 1l1.143 1.143M21.143 3.857 20 5M24 1l-1.143 1.143"/>
        </g>
    </g>
</svg>
