<svg xmlns="http://www.w3.org/2000/svg" width="25" height="25" fill="none" fill-rule="evenodd" xmlns:v="https://vecta.io/nano"><circle transform="matrix(0 -1 1 0 1.2966 23.6598)" cx="11.331" cy="11.331" r="11.331" fill="#e1e6f0" fill-rule="nonzero"/><g stroke="#1c1e2f" stroke-width=".8"><path d="M15 9.4c.442 0 .842.179 1.131.469s.469.69.469 1.131v13.6H8.4V11c0-.442.179-.842.469-1.131S9.558 9.4 10 9.4z" fill="#e03f19"/><path d="M23 17.4c.442 0 .842.179 1.131.469s.469.69.469 1.131v5.6h-6.2V19c0-.442.179-.842.469-1.131s.69-.469 1.131-.469z" fill="#fff"/><path d="M5 14.4c.442 0 .842.179 1.131.469s.469.69.469 1.131v8.6H.4V16c0-.442.179-.842.469-1.131S1.558 14.4 2 14.4z" fill="#f3a891"/></g><g fill-rule="nonzero"><path d="M11.312 16.353h1.025v-2.95l.011-.361-.728.609c-.03.026-.061.043-.093.052a.34.34 0 0 1-.093.014c-.047 0-.089-.01-.128-.03s-.067-.043-.086-.068l-.273-.374 1.543-1.312h.71v4.42h.91V17h-2.8v-.648zm-7.746.261a1.63 1.63 0 0 1 .549.088 1.25 1.25 0 0 1 .426.25c.118.107.21.238.276.39a1.26 1.26 0 0 1 .099.507 1.35 1.35 0 0 1-.071.444c-.047.136-.11.266-.189.39a2.62 2.62 0 0 1-.277.36l-.333.354-.978.999a2.37 2.37 0 0 1 .282-.065 1.64 1.64 0 0 1 .264-.022h1.113c.08 0 .143.022.191.067s.07.104.07.178V21H2.012v-.246a.43.43 0 0 1 .031-.156c.021-.054.054-.104.101-.15l1.317-1.32.295-.321c.087-.102.16-.203.219-.303s.104-.201.135-.305a1.13 1.13 0 0 0 .046-.325.77.77 0 0 0-.045-.275c-.03-.079-.073-.145-.129-.199a.54.54 0 0 0-.199-.122.78.78 0 0 0-.26-.041.69.69 0 0 0-.439.135c-.115.09-.195.211-.242.363-.022.076-.055.131-.099.163s-.1.05-.168.05c-.03 0-.063-.003-.099-.009l-.39-.069a1.61 1.61 0 0 1 .174-.548 1.31 1.31 0 0 1 .322-.393c.129-.105.277-.184.444-.237a1.77 1.77 0 0 1 .539-.079z" fill="#fff"/><path d="M21.635 19.114c.2 0 .381.029.541.085s.299.136.413.237a1.04 1.04 0 0 1 .262.355c.061.136.091.283.091.441a1.29 1.29 0 0 1-.047.364.85.85 0 0 1-.135.274.82.82 0 0 1-.216.198 1.31 1.31 0 0 1-.29.135c.26.082.454.207.582.375s.192.379.192.633c0 .216-.04.407-.12.573a1.23 1.23 0 0 1-.324.418 1.41 1.41 0 0 1-.473.257c-.179.058-.369.087-.569.087a1.94 1.94 0 0 1-.57-.075c-.162-.05-.303-.124-.423-.222a1.34 1.34 0 0 1-.306-.36 2.43 2.43 0 0 1-.216-.492l.327-.135a.43.43 0 0 1 .171-.036.29.29 0 0 1 .139.033c.041.022.073.054.095.096l.119.207a.84.84 0 0 0 .154.181c.06.053.131.096.212.129s.177.049.29.049a.82.82 0 0 0 .33-.061c.094-.041.173-.095.236-.16a.66.66 0 0 0 .141-.221.68.68 0 0 0 .047-.244 1.13 1.13 0 0 0-.033-.284.42.42 0 0 0-.138-.218.75.75 0 0 0-.302-.141c-.131-.034-.306-.051-.526-.051v-.528c.182-.002.333-.019.453-.051a.77.77 0 0 0 .287-.133c.071-.057.12-.126.148-.206s.042-.168.042-.264c0-.206-.056-.361-.168-.466s-.265-.158-.459-.158c-.176 0-.322.047-.438.14a.73.73 0 0 0-.243.358c-.024.076-.057.131-.099.163s-.097.05-.165.05a.62.62 0 0 1-.102-.009l-.39-.069a1.61 1.61 0 0 1 .174-.548c.086-.157.194-.288.322-.393s.277-.184.444-.237a1.77 1.77 0 0 1 .538-.079z" fill="#1c1e2f"/></g><path stroke="#1c1e2f" stroke-width=".8" fill="#fff" stroke-linejoin="round" d="M12.5 6.8l-2.351 1.236.449-2.618-1.902-1.854 2.629-.382L12.5.8l1.176 2.382 2.629.382-1.902 1.854.449 2.618z"/><path d="M24.456 8.601a2.5 2.5 0 0 1-2.5-2.5 2.5 2.5 0 0 1-2.499 2.5 2.5 2.5 0 0 1 2.499 2.5 2.5 2.5 0 0 1 2.5-2.5zm-19-7a1.5 1.5 0 0 1-1.5-1.5 1.5 1.5 0 0 1-1.499 1.5 1.5 1.5 0 0 1 1.499 1.5 1.5 1.5 0 0 1 1.5-1.5z" stroke="#7a8798" stroke-width=".75"/></svg>