<svg xmlns="http://www.w3.org/2000/svg" width="25" height="25" xmlns:v="https://vecta.io/nano"><style><![CDATA[.B{stroke:#1c1e2f}.C{stroke-width:.8}.D{stroke-linejoin:round}.E{stroke-linecap:round}]]></style><g fill="none" fill-rule="evenodd"><circle fill="#e1e6f0" fill-rule="nonzero" transform="rotate(270 13.163 11.5)" cx="13.163" cy="11.5" r="10.5"/><path d="M20.703 18.492v5.114m-8.204 0v-5.114" class="B C E"/><path fill="#fff" d="M8.593 17.311h15.235V4.721H8.593z"/><g class="B C"><path d="M8.593 9.836V4.721h15.235v12.59H8.593v-3.147" class="D"/><circle fill="#fff" cx="4.499" cy="7.5" r="2.1"/></g><path d="M12.5 11.016H3.514c-1.854 0-3.124.595-3.124 2.361v3.54c0 .845.725 1.575 1.563 1.575H7.03v-5.508h3.515c1.18 0 1.953-1.095 1.953-1.968" fill="#e03f19"/><path d="M12.5 11.016H3.514c-1.854 0-3.124.595-3.124 2.361v3.54c0 .845.725 1.575 1.563 1.575H7.03v-5.508h3.515c1.18 0 1.953-1.095 1.953-1.968z" class="B C"/><path fill="#e03f19" d="M2.343 24h4.688V13.377H2.343z"/><path d="M7.031 13.377V24m-2.344-6.295V24M2.343 13.377V24" class="B C"/><g class="E"><path stroke="#e03f19" d="M10.156 15.344h2.734l1.172-1.574h2.344l2.343-3.934h1.563l1.172-1.967h.781" class="D"/><path d="M11.328 23.606h2.343m5.86 0h2.343" class="B C"/></g><path fill="#f3a891" d="M7.812 5.508h16.797V2.754H7.812z"/><path d="M7.812 5.508h16.797V2.754H7.812z" class="B C D"/><path d="M3 2.5A1.5 1.5 0 0 1 1.5 1 1.5 1.5 0 0 1 0 2.5 1.5 1.5 0 0 1 1.5 4 1.5 1.5 0 0 1 3 2.5z" stroke="#7a8798" stroke-width=".75"/></g></svg>